<?xml version="1.0" standalone="no"?>
<!DOCTYPE svg PUBLIC "-//W3C//DTD SVG 1.1//EN" "http://www.w3.org/Graphics/SVG/1.1/DTD/svg11.dtd" >
<svg xmlns="http://www.w3.org/2000/svg">
<metadata>
This is a custom SVG font generated by IcoMoon.
<iconset id="book-viewer" name="book-viewer"></iconset>
</metadata>
<defs>
<font id="book-viewer" horiz-adv-x="512" >
<font-face units-per-em="512" ascent="480" descent="-32" />
<missing-glyph horiz-adv-x="512" />
<glyph unicode="&#xe000;" d="M 323.872,224.00 L 414.368,133.504 L 346.496,65.632 L 256.00,156.128 L 165.504,65.632 L 97.60,133.504 L 188.128,224.00 L 97.60,314.528 L 165.472,382.40 L 256.00,291.872 L 346.496,382.40 L 414.368,314.496 Z" data-tags="panel-close" />
<glyph unicode="&#xe001;" d="M 391.744,359.808c-74.976,74.944-196.544,74.944-271.52,0.00c-74.976-74.976-74.976-196.576,0.00-271.552c 74.976-75.008, 196.576-74.976, 271.52,0.00
		C 466.752,163.20, 466.752,284.832, 391.744,359.808z M 357.824,122.176c-56.192-56.224-147.392-56.256-203.648,0.00c-56.224,56.224-56.224,147.456,0.00,203.68
		c 56.224,56.192, 147.424,56.192, 203.648,0.00C 414.048,269.632, 414.048,178.368, 357.824,122.176z" data-tags="pager-empty" />
<glyph unicode="&#xe002;" d="M 288.00,224.00 L 160.00,352.00 L 222.976,352.00 L 350.976,224.00 L 222.976,96.00 L 158.976,96.00 Z" data-tags="page-next-lg" />
<glyph unicode="&#xe003;" d="M 8.00,21.248l 45.248-45.248c 6.24-6.24, 16.448-6.24, 22.624,0.00l 88.16,88.128c 34.848-22.304, 76.16-35.424, 120.672-35.424
			c 123.68,0.00, 224.00,100.256, 224.00,224.00c0.00,123.712-100.32,224.00-224.00,224.00c-123.744,0.00-224.00-100.288-224.00-224.00c0.00-44.512, 13.12-85.824, 35.424-120.672L 8.00,43.872
			C 1.76,37.664, 1.76,27.456, 8.00,21.248z M 124.672,252.672c0.00,88.224, 71.744,160.00, 160.00,160.00c 88.192,0.00, 160.00-71.776, 160.00-160.00c0.00-88.256-71.808-160.00-160.00-160.00
			C 196.448,92.672, 124.672,164.448, 124.672,252.672z" data-tags="options-search" />
<glyph unicode="&#xe004;" d="M 104.352,73.856 L 171.648,6.528 L 93.184-4.704 L 14.656-15.776 L 25.792,62.624 L 36.992,141.152 ZM 395.744,276.256 L 418.144,253.824 L 193.824,29.472 L 59.20,164.032 L 283.552,388.416 L 305.984,365.984 L 104.00,164.032 L 126.464,141.664 L 328.416,343.552 L 373.344,298.656 L 171.424,96.672 L 193.824,74.272 ZM 487.808,364.544 C 500.16,352.224 500.576,332.416 488.704,320.576 C 487.744,319.616 486.56,319.264 485.44,318.464 L 486.048,317.888 L 442.944,274.784 L 308.352,409.408 L 351.424,452.512 L 351.968,451.936 C 352.736,452.992 353.184,454.24 354.176,455.20 C 365.92,466.976 385.728,466.624 398.08,454.304 L 487.808,364.544 Z" data-tags="options-annotate" />
<glyph unicode="&#xe005;" d="M 138.496,386.752 L 192.00,440.256 L 192.00,288.00 L 39.744,288.00 L 93.248,341.504 L 0.00,434.752 L 45.248,480.00 ZM 472.256,288.00 L 320.00,288.00 L 320.00,440.256 L 373.504,386.752 L 466.752,480.00 L 512.00,434.752 L 418.752,341.504 ZM 39.744,160.00 L 192.00,160.00 L 192.00,7.744 L 138.496,61.248 L 45.248-32.00 L 0.00,13.248 L 93.248,106.496 ZM 418.752,106.496 L 512.00,13.248 L 466.752-32.00 L 373.504,61.248 L 320.00,7.744 L 320.00,160.00 L 472.256,160.00 Z" data-tags="book-view-minimize" />
<glyph unicode="&#xe006;" d="M 199.744,122.496 L 102.656,25.376 L 160.00-32.00 L 0.00-32.00 L 0.00,128.00 L 57.344,70.624 L 154.496,167.744 ZM 512.00,480.00 L 512.00,320.00 L 454.624,377.376 L 357.504,280.224 L 312.224,325.504 L 409.376,422.624 L 352.00,480.00 ZM 57.344,377.376 L 0.00,320.00 L 0.00,480.00 L 160.00,480.00 L 102.656,422.624 L 199.744,325.504 L 154.496,280.256 ZM 454.624,70.624 L 512.00,128.00 L 512.00-32.00 L 352.00-32.00 L 409.376,25.376 L 312.224,122.496 L 357.504,167.776 Z" data-tags="book-view-maximize" />
<glyph unicode="&#xe007;" d="M 480.00,448.00L 32.00,448.00 l0.00-192.00 l 448.00,0.00 L 480.00,391.296 L 480.00,448.00 z M 448.00,288.00L 64.00,288.00 L 64.00,416.00 l 384.00,0.00 L 448.00,288.00 zM 160.00,192.00L 32.00,192.00 l0.00-192.00 l 128.00,0.00 l0.00,135.328 L 160.00,192.00 z M 128.00,32.00L 64.00,32.00 l0.00,128.00 l 64.00,0.00 L 128.00,32.00 zM 320.00,192.00L 192.00,192.00 l0.00-192.00 l 128.00,0.00 l0.00,135.328 L 320.00,192.00 z M 288.00,32.00L 224.00,32.00 l0.00,128.00 l 64.00,0.00 L 288.00,32.00 zM 480.00,192.00l-128.00,0.00 l0.00-192.00 l 128.00,0.00 l0.00,135.328 L 480.00,192.00 z M 448.00,32.00l-64.00,0.00 l0.00,128.00 l 64.00,0.00 L 448.00,32.00 z" data-tags="book-thumbnails" />
<glyph unicode="&#xe008;" d="M 160.00,448.00L 32.00,448.00 l0.00-192.00 l 128.00,0.00 L 160.00,391.296 L 160.00,448.00 z M 128.00,288.00L 64.00,288.00 L 64.00,416.00 l 64.00,0.00 L 128.00,288.00 zM 160.00,192.00L 32.00,192.00 l0.00-192.00 l 128.00,0.00 l0.00,135.328 L 160.00,192.00 z M 128.00,32.00L 64.00,32.00 l0.00,128.00 l 64.00,0.00 L 128.00,32.00 zM 320.00,192.00L 192.00,192.00 l0.00-192.00 l 128.00,0.00 l0.00,135.328 L 320.00,192.00 z M 288.00,32.00L 224.00,32.00 l0.00,128.00 l 64.00,0.00 L 288.00,32.00 zM 480.00,192.00l-128.00,0.00 l0.00-192.00 l 128.00,0.00 l0.00,135.328 L 480.00,192.00 z M 448.00,32.00l-64.00,0.00 l0.00,128.00 l 64.00,0.00 L 448.00,32.00 zM 320.00,448.00L 192.00,448.00 l0.00-192.00 l 128.00,0.00 L 320.00,391.328 L 320.00,448.00 z M 288.00,288.00L 224.00,288.00 L 224.00,416.00 l 64.00,0.00 L 288.00,288.00 zM 480.00,448.00l-128.00,0.00 l0.00-192.00 l 128.00,0.00 L 480.00,391.328 L 480.00,448.00 z M 448.00,288.00l-64.00,0.00 L 384.00,416.00 l 64.00,0.00 L 448.00,288.00 z" data-tags="book-thumbnails-alt" />
<glyph unicode="&#xe009;" d="M 333.248,480.00L 32.00,480.00 l0.00-512.00 l 448.00,0.00 L 480.00,333.248 L 333.248,480.00z M 416.00,32.00L 96.00,32.00 L 96.00,416.00 l 210.752,0.00 L 416.00,306.752L 416.00,32.00 zM 160.00,256.00L 352.00,256.00L 352.00,224.00L 160.00,224.00zM 160.00,320.00L 288.00,320.00L 288.00,288.00L 160.00,288.00zM 160.00,192.00L 352.00,192.00L 352.00,160.00L 160.00,160.00zM 160.00,128.00L 352.00,128.00L 352.00,96.00L 160.00,96.00z" data-tags="book-page-single" />
<glyph unicode="&#xe00a;" d="M 512.00,256.00L 704.00,256.00L 704.00,224.00L 512.00,224.00zM 512.00,320.00L 640.00,320.00L 640.00,288.00L 512.00,288.00zM 512.00,192.00L 704.00,192.00L 704.00,160.00L 512.00,160.00zM 512.00,128.00L 704.00,128.00L 704.00,96.00L 512.00,96.00zM 685.248,480.00L 448.00,480.00 l-64.00,0.00 L 146.752,480.00 l-150.752-146.752L-4.00-32.00 L 384.00-32.00 l 64.00,0.00 l 380.00,0.00 L 828.00,333.248 L 685.248,480.00z M 380.00,32.00l-320.00,0.00 L 60.00,306.752 L 173.248,416.00l 206.752,0.00 L 380.00,32.00 z M 764.00,32.00
			l-320.00,0.00 L 444.00,416.00 l 214.752,0.00 l 105.248-109.248L 764.00,32.00 zM 128.00,256.00L 320.00,256.00L 320.00,224.00L 128.00,224.00zM 192.00,320.00L 320.00,320.00L 320.00,288.00L 192.00,288.00zM 128.00,192.00L 320.00,192.00L 320.00,160.00L 128.00,160.00zM 128.00,128.00L 320.00,128.00L 320.00,96.00L 128.00,96.00z" horiz-adv-x="832" data-tags="book-page-double" />
<glyph unicode="&#xe00b;" d="M 259.328,284.672 L 323.328,284.672 L 323.328,220.672 L 259.328,220.672 L 259.328,156.672 L 195.328,156.672 L 195.328,220.672 L 131.328,220.672 L 131.328,284.672 L 195.328,284.672 L 195.328,348.672 L 259.328,348.672 ZM 504.00,43.872l-88.128,88.128c 22.304,34.88, 35.424,76.192, 35.424,120.672c0.00,123.712-100.256,224.00-224.00,224.00c-123.68,0.00-224.00-100.288-224.00-224.00
			c0.00-123.744, 100.288-224.00, 224.00-224.00c 44.512,0.00, 85.824,13.12, 120.672,35.424l 88.16-88.128c 6.176-6.24, 16.384-6.24, 22.624,0.00l 45.248,45.248
			C 510.24,27.456, 510.24,37.664, 504.00,43.872z M 227.328,92.672c-88.192,0.00-160.00,71.744-160.00,160.00c0.00,88.224, 71.808,160.00, 160.00,160.00c 88.256,0.00, 160.00-71.776, 160.00-160.00
			C 387.328,164.448, 315.552,92.672, 227.328,92.672z" data-tags="zoom-out" />
<glyph unicode="&#xe00c;" d="M 131.328,284.672L 323.328,284.672L 323.328,220.672L 131.328,220.672zM 504.00,43.872l-88.128,88.128c 22.304,34.88, 35.424,76.192, 35.424,120.672c0.00,123.712-100.256,224.00-224.00,224.00c-123.68,0.00-224.00-100.288-224.00-224.00
			c0.00-123.744, 100.288-224.00, 224.00-224.00c 44.512,0.00, 85.824,13.12, 120.672,35.424l 88.16-88.128c 6.176-6.24, 16.384-6.24, 22.624,0.00l 45.248,45.248
			C 510.24,27.456, 510.24,37.664, 504.00,43.872z M 227.328,92.672c-88.192,0.00-160.00,71.744-160.00,160.00c0.00,88.192, 71.808,160.00, 160.00,160.00c 88.256,0.00, 160.00-71.776, 160.00-160.00
			C 387.328,164.448, 315.552,92.672, 227.328,92.672z" data-tags="zoom-in" />
<glyph unicode="&#xe00d;" d="M0.00,480.00L 128.00,480.00L 128.00,352.00L0.00,352.00zM0.00,288.00L 128.00,288.00L 128.00,160.00L0.00,160.00zM0.00,96.00L 128.00,96.00L 128.00-32.00L0.00-32.00zM 192.00,480.00L 512.00,480.00L 512.00,352.00L 192.00,352.00zM 192.00,288.00L 512.00,288.00L 512.00,160.00L 192.00,160.00zM 192.00,96.00L 512.00,96.00L 512.00-32.00L 192.00-32.00z" data-tags="list-view" />
<glyph unicode="&#xe00e;" d="M0.00,480.00L 128.00,480.00L 128.00,352.00L0.00,352.00zM0.00,288.00L 128.00,288.00L 128.00,160.00L0.00,160.00zM0.00,96.00L 128.00,96.00L 128.00-32.00L0.00-32.00zM 192.00,480.00L 320.00,480.00L 320.00,352.00L 192.00,352.00zM 192.00,288.00L 320.00,288.00L 320.00,160.00L 192.00,160.00zM 192.00,96.00L 320.00,96.00L 320.00-32.00L 192.00-32.00zM 384.00,480.00L 512.00,480.00L 512.00,352.00L 384.00,352.00zM 384.00,288.00L 512.00,288.00L 512.00,160.00L 384.00,160.00zM 384.00,96.00L 512.00,96.00L 512.00-32.00L 384.00-32.00z" data-tags="grid-view" />
<glyph unicode="&#xe00f;" d="M 256.00,382.944 L 256.00,94.944 C 198.72,127.936 96.00,128.00 96.00,128.00 L 96.00,416.00 C 96.00,416.00 198.72,415.936 256.00,382.944 ZM 448.00,416.00 L 448.00,128.00 C 448.00,128.00 345.28,127.936 288.00,94.944 L 288.00,382.944 C 345.28,415.936 448.00,416.00 448.00,416.00 ZM 512.00,384.00 L 512.00,96.00 L 512.00,64.00 L 288.00,32.00 L 256.00,32.00 L 32.00,64.00 L 32.00,96.00 L 32.00,384.00 L 64.00,384.00 L 64.00,91.424 L 256.00,64.00 L 288.00,64.00 L 480.00,91.424 L 480.00,384.00 Z" data-tags="book" />
<glyph unicode="&#xe014;" d="M 352.00,352.00L 288.00,352.00L 160.00,224.00L 288.00,96.00L 350.976,96.00L 222.976,224.00 		z" data-tags="page-prev-lg" />
<glyph unicode="&#xe015;" d="M 391.744,359.808 C 466.752,284.832 466.752,163.20 391.744,88.256 C 316.80,13.28 195.20,13.248 120.224,88.256 C 45.248,163.232 45.248,284.832 120.224,359.808 C 195.20,434.752 316.768,434.752 391.744,359.808 Z" data-tags="pager-current" />
<glyph unicode="&#xe016;" d="M 310.624,101.312C 310.624,97.12, 309.888,96.00, 305.312,96.00l-96.64,0.00 c-4.576,0.00-5.312,1.12-5.312,5.312l0.00,24.64 
			c0.00,4.16, 0.736,5.312, 5.312,5.312l 24.256,0.00 L 232.928,247.936 L 208.32,247.936 c-4.576,0.00-5.312,1.12-5.312,5.312l0.00,24.64 c0.00,4.16, 0.736,5.312, 5.312,5.312l 67.424,0.00 
			c 4.576,0.00, 5.312-1.152, 5.312-5.312l0.00-146.624 l 24.256,0.00 c 4.576,0.00, 5.312-1.152, 5.312-5.312L 310.624,101.312 z M 256.80,307.808
			c-17.44,0.00-31.424,14.016-31.424,31.424S 239.36,370.304, 256.80,370.304c 17.056,0.00, 31.072-13.632, 31.072-31.072S 273.888,307.808, 256.80,307.808zM 256.00,470.144C 120.032,470.144, 9.824,359.968, 9.824,224.00S 120.032-22.144, 256.00-22.144c 135.936,0.00, 246.176,110.176, 246.176,246.144S 391.936,470.144, 256.00,470.144z
			 M 256.00,13.824c-115.904,0.00-210.208,94.272-210.208,210.144c0.00,115.904, 94.304,210.176, 210.208,210.176c 115.872,0.00, 210.176-94.272, 210.176-210.176
			C 466.176,108.096, 371.872,13.824, 256.00,13.824z" data-tags="book-metadata" />
<glyph unicode="&#xe010;" d="M 384.00,320.00 L 384.00,128.00 L 256.00,128.00 L 256.00,68.992 L 175.968,147.744 L 128.00,195.488 L 128.00,64.00 L 96.00,64.00 L 96.00,384.00 L 128.00,384.00 L 128.00,257.536 L 175.968,305.248 L 256.00,384.00 L 256.00,320.00 Z" data-tags="page-first" />
<glyph unicode="&#xe011;" d="M 416.00,384.00 L 416.00,64.00 L 384.00,64.00 L 384.00,195.456 L 336.064,147.744 L 256.00,68.992 L 256.00,128.00 L 128.00,128.00 L 128.00,320.00 L 256.00,320.00 L 256.00,384.00 L 336.064,305.248 L 384.00,257.536 L 384.00,384.00 Z" data-tags="page-last" />
<glyph unicode="&#xe012;" d="M 415.20,226.528 L 336.064,147.744 L 256.00,68.992 L 256.00,128.00 L 128.00,128.00 L 128.00,320.00 L 256.00,320.00 L 256.00,384.00 L 336.064,305.248 Z" data-tags="page-next" />
<glyph unicode="&#xe013;" d="M 175.968,305.248L 256.00,384.00L 256.00,320.00L 384.00,320.00L 384.00,128.00L 256.00,128.00L 256.00,68.992L 175.968,147.744L 96.832,226.528 		z" data-tags="page-prev" />
<glyph class="hidden" unicode="&#xf000;" d="M0,480L 512 -32L0 -32 z" horiz-adv-x="0" />
</font>
</defs>
</svg>
